<?xml version="1.0" encoding="UTF-8" standalone="no"?>
<svg id="svg2" xmlns:rdf="http://www.w3.org/1999/02/22-rdf-syntax-ns#" xmlns="http://www.w3.org/2000/svg" height="293.76mm" width="235.33mm" version="1.1" xmlns:cc="http://creativecommons.org/ns#" xmlns:dc="http://purl.org/dc/elements/1.1/" viewBox="0 0 833.86193 1040.8842">
<g id="layer1" transform="translate(2.6453 -23.349)">
<g id="g4185" transform="matrix(.097585 0 0 .097585 -1705.5 -243.21)">
<path id="path35" class="fil2" fill="#1a1617" d="m23954 5647c76 135 71 348 4 613-79 312-274 536-467 558-98 451-291 849-547 1151 338 268 619 569 818 918 501 160 992 427 1487 651 125 57 101 37 157 166 228 528 390 1066 589 1598-987 1275-2532 2096-4270 2096-1740 0-3288-824-4275-2104 230-490 366-1079 610-1595 67-140 45-118 184-179 477-208 927-445 1445-608 229-392 519-701 878-914-269-305-469-712-571-1179-204 4-420-227-504-559-67-265-71-478 4-613 40-70 88-105 139-116-300-1070 54-1813 814-2259 1061-807 2414-737 3229 391 382 529 444 1314 276 1984z"/>
<path id="path37" class="fil3" fill="#3d3d3d" d="m21703 2746c-430 49-862 227-1254 526-760 446-1114 1189-814 2259 117-25 248 80 311 199 14 28 28 72 23 103 6 141 24 282 55 412 10 42 88 86 78 22-37-234-8-509-47-730l-36-197c133-528 397-976 740-1273 309 339 673 620 1153 671 828 89 1304 358 1551 799-39 221-11 496-47 730-10 64 68 20 78-22 31-130 22-270 28-411-14-50-15-108 12-151 95-153 304-244 420-36 168-670 106-1455-276-1984-399-552-927-851-1487-917h-488z"/>
<path id="path39" class="fil4" fill="#f6d5b8" d="m19635 5531zm-75 37c-23 19-44 45-64 79-75 135-71 348-4 613 58 226 176 406 311 496 62 42 128 65 193 63 102 467 302 874 571 1179-33 96-64 227-92 358 359 556 789 880 1250 880 486 0 936-358 1306-967-33-134-65-242-87-300 256-302 449-700 547-1151 53-6 106-28 157-62 135-90 253-270 310-496 67-265 72-478-4-613-19-34-40-60-63-79-118-98-278-13-357 115-27 43-26 101-12 151-6 141 3 281-28 411-10 42-88 86-78 22 36-234 8-509 47-730-247-441-723-710-1551-799-480-51-844-332-1153-671-343 297-607 745-740 1273l36 197c39 221 10 496 47 730 10 64-68 20-78-22-31-130-49-271-55-412 5-31-9-75-23-103-63-119-194-224-311-199-26 5-51 17-75 37z"/>
<path id="path41" class="fil5" fill="#e6c6aa" d="m19980 6711c-40-183-62-368-66-554-3-119 1-239 12-358-10-14-20-27-32-40-39-41-109-94-172-88-47 3-78 41-98 76-79 141-26 378 17 522 37 123 102 251 198 345 37 37 87 75 141 97zm3515 0c40-183 62-368 66-554 4-119-1-239-12-358 10-14 20-27 32-40 39-41 109-94 172-88 47 3 78 41 98 76 79 141 26 378-17 522-36 123-102 251-198 345-37 37-87 75-141 97z"/>
<path id="path43" class="fil6" fill="#383032" d="m20567 8003c-678 1903 770 3688 1100 5395-54-1-108-2-162-5l-2186-2743 624-489c-136-190-389-281-501-477 105-248 97-530 247-767 229-392 519-701 878-914zm2493 62c287 243 526 514 702 822 26 8 51 17 76 25l3 5c150 237 142 519 247 767-112 196-364 287-501 477l624 489-2182 2740c-55 3-110 5-166 6 331-1706 1778-3491 1100-5393 33 20 65 40 97 62z"/>
<path id="path45" class="fil5" fill="#e6c6aa" d="m22944 7969c5-6-474 540-1196 540-503 0-1178-508-1178-507l-21 89c128 149 272 268 430 363 234 140 499 227 787 275 277 46 576 56 888 42 133-139 259-308 377-502-32-133-65-242-87-300z"/>
<path id="path47" class="fil7" fill="#fff" d="m21725 9236c-461 0-891-324-1250-880 28-131 59-262 92-358-439 1232 13 2414 476 3558 253 625 509 1238 625 1842h57c46 0 92-1 137-2 108-557 335-1124 568-1699 481-1188 990-2417 533-3699 24 15 47 29 71 44-30-24-60-49-90-73 22 58 54 166 87 300-118 194-244 363-377 502-284 299-598 465-929 465z"/>
<path id="path49" class="fil8" fill="#f23034" d="m21731 9339-579 923 195 281-304 1016c252 624 508 1236 624 1839h58c46 0 92-1 138-2 108-556 334-1121 567-1696 31-84-330-1144-330-1144l195-343-564-874z"/>
<path id="path51" class="fil1" fill="#e6e6e6" d="m21731 9359-902 1224-384-890c108 636 354 1260 602 1873l300-1003-195-281 579-923zm908 1242-908-1242 564 874-195 343s317 931 331 1117c273-671 553-1356 663-2056l-455 964z"/>
<path id="path53" class="fil5" fill="#e6c6aa" d="m21912 4738c-480-51-844-332-1153-671-343 297-607 745-740 1273 245-376 404-858 735-1127 447 918 2007 580 2709 1324-247-441-723-710-1551-799z"/>
</g>
</g>
</svg>